<mxfile host="app.diagrams.net" modified="2024-06-11T15:06:21.884Z" agent="Mozilla/5.0 (Windows NT 10.0; Win64; x64) AppleWebKit/537.36 (KHTML, like Gecko) Chrome/125.0.0.0 Safari/537.36 Edg/125.0.0.0" etag="dhPnfQ-WPzOssvY-0X3L" version="24.5.2" type="device">
  <diagram id="6a731a19-8d31-9384-78a2-239565b7b9f0" name="Page-1">
    <mxGraphModel dx="1426" dy="831" grid="1" gridSize="10" guides="1" tooltips="1" connect="1" arrows="1" fold="1" page="1" pageScale="1" pageWidth="1169" pageHeight="827" background="none" math="0" shadow="0">
      <root>
        <mxCell id="0" />
        <mxCell id="1" parent="0" />
        <mxCell id="LKbUBobH1jYEDCyhuCr8-56" value="" style="edgeStyle=orthogonalEdgeStyle;rounded=0;orthogonalLoop=1;jettySize=auto;html=1;strokeWidth=2;" edge="1" parent="1" source="2" target="LKbUBobH1jYEDCyhuCr8-55">
          <mxGeometry relative="1" as="geometry" />
        </mxCell>
        <mxCell id="2" value="start" style="shape=mxgraph.flowchart.terminator;strokeWidth=2;gradientColor=none;gradientDirection=north;fontStyle=0;html=1;" parent="1" vertex="1">
          <mxGeometry x="540" y="140" width="120" height="30" as="geometry" />
        </mxCell>
        <mxCell id="40" value="end" style="shape=mxgraph.flowchart.terminator;strokeWidth=2;gradientColor=none;gradientDirection=north;fontStyle=0;html=1;" parent="1" vertex="1">
          <mxGeometry x="540" y="960" width="120" height="30" as="geometry" />
        </mxCell>
        <mxCell id="LKbUBobH1jYEDCyhuCr8-58" value="" style="edgeStyle=orthogonalEdgeStyle;rounded=0;orthogonalLoop=1;jettySize=auto;html=1;strokeWidth=2;" edge="1" parent="1" source="LKbUBobH1jYEDCyhuCr8-55" target="LKbUBobH1jYEDCyhuCr8-57">
          <mxGeometry relative="1" as="geometry" />
        </mxCell>
        <mxCell id="LKbUBobH1jYEDCyhuCr8-55" value="绘制菜单" style="whiteSpace=wrap;html=1;strokeWidth=2;gradientColor=none;gradientDirection=north;fontStyle=0;" vertex="1" parent="1">
          <mxGeometry x="550" y="235" width="100" height="25" as="geometry" />
        </mxCell>
        <mxCell id="LKbUBobH1jYEDCyhuCr8-62" value="" style="edgeStyle=orthogonalEdgeStyle;rounded=0;orthogonalLoop=1;jettySize=auto;html=1;strokeWidth=2;entryX=0.5;entryY=0;entryDx=0;entryDy=0;entryPerimeter=0;" edge="1" parent="1" source="LKbUBobH1jYEDCyhuCr8-57" target="LKbUBobH1jYEDCyhuCr8-85">
          <mxGeometry relative="1" as="geometry">
            <mxPoint x="130" y="450" as="targetPoint" />
          </mxGeometry>
        </mxCell>
        <mxCell id="LKbUBobH1jYEDCyhuCr8-78" value="1" style="edgeLabel;html=1;align=center;verticalAlign=middle;resizable=0;points=[];fontStyle=1;fontSize=20;" vertex="1" connectable="0" parent="LKbUBobH1jYEDCyhuCr8-62">
          <mxGeometry x="0.7995" relative="1" as="geometry">
            <mxPoint as="offset" />
          </mxGeometry>
        </mxCell>
        <mxCell id="LKbUBobH1jYEDCyhuCr8-72" value="" style="edgeStyle=orthogonalEdgeStyle;rounded=0;orthogonalLoop=1;jettySize=auto;html=1;strokeWidth=2;" edge="1" parent="1" source="LKbUBobH1jYEDCyhuCr8-57" target="LKbUBobH1jYEDCyhuCr8-71">
          <mxGeometry relative="1" as="geometry" />
        </mxCell>
        <mxCell id="LKbUBobH1jYEDCyhuCr8-81" value="4" style="edgeLabel;html=1;align=center;verticalAlign=middle;resizable=0;points=[];fontSize=20;fontStyle=1" vertex="1" connectable="0" parent="LKbUBobH1jYEDCyhuCr8-72">
          <mxGeometry x="0.8515" y="2" relative="1" as="geometry">
            <mxPoint x="-2" y="-11" as="offset" />
          </mxGeometry>
        </mxCell>
        <mxCell id="LKbUBobH1jYEDCyhuCr8-77" style="edgeStyle=orthogonalEdgeStyle;rounded=0;orthogonalLoop=1;jettySize=auto;html=1;exitX=0.5;exitY=1;exitDx=0;exitDy=0;entryX=0.5;entryY=0;entryDx=0;entryDy=0;strokeWidth=2;" edge="1" parent="1" source="LKbUBobH1jYEDCyhuCr8-57" target="LKbUBobH1jYEDCyhuCr8-66">
          <mxGeometry relative="1" as="geometry">
            <mxPoint x="650" y="340" as="sourcePoint" />
            <mxPoint x="840" y="460" as="targetPoint" />
          </mxGeometry>
        </mxCell>
        <mxCell id="LKbUBobH1jYEDCyhuCr8-80" value="3" style="edgeLabel;html=1;align=center;verticalAlign=middle;resizable=0;points=[];fontSize=20;fontStyle=1" vertex="1" connectable="0" parent="LKbUBobH1jYEDCyhuCr8-77">
          <mxGeometry x="0.7806" y="-1" relative="1" as="geometry">
            <mxPoint x="1" y="-28" as="offset" />
          </mxGeometry>
        </mxCell>
        <mxCell id="LKbUBobH1jYEDCyhuCr8-83" value="" style="edgeStyle=orthogonalEdgeStyle;rounded=0;orthogonalLoop=1;jettySize=auto;html=1;strokeWidth=2;" edge="1" parent="1" source="LKbUBobH1jYEDCyhuCr8-57" target="LKbUBobH1jYEDCyhuCr8-82">
          <mxGeometry relative="1" as="geometry" />
        </mxCell>
        <mxCell id="LKbUBobH1jYEDCyhuCr8-84" value="5" style="edgeLabel;html=1;align=center;verticalAlign=middle;resizable=0;points=[];fontSize=20;fontStyle=1" vertex="1" connectable="0" parent="LKbUBobH1jYEDCyhuCr8-83">
          <mxGeometry x="0.9123" y="-2" relative="1" as="geometry">
            <mxPoint x="2" y="-12" as="offset" />
          </mxGeometry>
        </mxCell>
        <mxCell id="LKbUBobH1jYEDCyhuCr8-57" value="输入选项" style="rhombus;whiteSpace=wrap;html=1;strokeWidth=2;gradientColor=none;gradientDirection=north;fontStyle=0;" vertex="1" parent="1">
          <mxGeometry x="550" y="312.5" width="100" height="57.5" as="geometry" />
        </mxCell>
        <mxCell id="LKbUBobH1jYEDCyhuCr8-76" style="edgeStyle=orthogonalEdgeStyle;rounded=0;orthogonalLoop=1;jettySize=auto;html=1;exitX=0;exitY=0.5;exitDx=0;exitDy=0;strokeWidth=2;entryX=0.5;entryY=0;entryDx=0;entryDy=0;" edge="1" parent="1" source="LKbUBobH1jYEDCyhuCr8-57" target="LKbUBobH1jYEDCyhuCr8-73">
          <mxGeometry relative="1" as="geometry">
            <mxPoint x="550" y="359" as="sourcePoint" />
            <mxPoint x="220" y="469" as="targetPoint" />
          </mxGeometry>
        </mxCell>
        <mxCell id="LKbUBobH1jYEDCyhuCr8-79" value="2" style="edgeLabel;html=1;align=center;verticalAlign=middle;resizable=0;points=[];fontStyle=1;fontSize=20;" vertex="1" connectable="0" parent="LKbUBobH1jYEDCyhuCr8-76">
          <mxGeometry x="0.7625" y="1" relative="1" as="geometry">
            <mxPoint x="-1" y="-12" as="offset" />
          </mxGeometry>
        </mxCell>
        <mxCell id="LKbUBobH1jYEDCyhuCr8-107" value="" style="edgeStyle=orthogonalEdgeStyle;rounded=0;orthogonalLoop=1;jettySize=auto;html=1;strokeWidth=2;" edge="1" parent="1" source="LKbUBobH1jYEDCyhuCr8-66" target="LKbUBobH1jYEDCyhuCr8-106">
          <mxGeometry relative="1" as="geometry" />
        </mxCell>
        <mxCell id="LKbUBobH1jYEDCyhuCr8-66" value="数据打印及修改" style="whiteSpace=wrap;html=1;align=center;strokeWidth=2;pointerEvents=1;" vertex="1" parent="1">
          <mxGeometry x="540" y="480" width="120" height="60" as="geometry" />
        </mxCell>
        <mxCell id="LKbUBobH1jYEDCyhuCr8-118" value="" style="edgeStyle=orthogonalEdgeStyle;rounded=0;orthogonalLoop=1;jettySize=auto;html=1;strokeWidth=2;" edge="1" parent="1" source="LKbUBobH1jYEDCyhuCr8-71" target="LKbUBobH1jYEDCyhuCr8-117">
          <mxGeometry relative="1" as="geometry" />
        </mxCell>
        <mxCell id="LKbUBobH1jYEDCyhuCr8-71" value="数据备份" style="whiteSpace=wrap;html=1;strokeWidth=2;gradientColor=none;gradientDirection=north;fontStyle=0;" vertex="1" parent="1">
          <mxGeometry x="810" y="479.89" width="120" height="60" as="geometry" />
        </mxCell>
        <mxCell id="LKbUBobH1jYEDCyhuCr8-96" style="edgeStyle=orthogonalEdgeStyle;rounded=0;orthogonalLoop=1;jettySize=auto;html=1;strokeWidth=2;" edge="1" parent="1">
          <mxGeometry relative="1" as="geometry">
            <mxPoint x="600" y="280" as="targetPoint" />
            <mxPoint x="419" y="680" as="sourcePoint" />
            <Array as="points">
              <mxPoint x="419" y="680" />
              <mxPoint x="419" y="750" />
              <mxPoint x="110" y="750" />
              <mxPoint x="110" y="280" />
            </Array>
          </mxGeometry>
        </mxCell>
        <mxCell id="LKbUBobH1jYEDCyhuCr8-100" value="" style="edgeStyle=orthogonalEdgeStyle;rounded=0;orthogonalLoop=1;jettySize=auto;html=1;strokeWidth=2;" edge="1" parent="1" source="LKbUBobH1jYEDCyhuCr8-73" target="LKbUBobH1jYEDCyhuCr8-99">
          <mxGeometry relative="1" as="geometry" />
        </mxCell>
        <mxCell id="LKbUBobH1jYEDCyhuCr8-73" value="数据统计" style="whiteSpace=wrap;html=1;align=center;strokeWidth=2;pointerEvents=1;" vertex="1" parent="1">
          <mxGeometry x="359" y="480" width="120" height="60" as="geometry" />
        </mxCell>
        <mxCell id="LKbUBobH1jYEDCyhuCr8-82" value="退出" style="whiteSpace=wrap;html=1;strokeWidth=2;gradientColor=none;gradientDirection=north;fontStyle=0;" vertex="1" parent="1">
          <mxGeometry x="1060" y="479.89" width="120" height="60" as="geometry" />
        </mxCell>
        <mxCell id="LKbUBobH1jYEDCyhuCr8-86" style="edgeStyle=orthogonalEdgeStyle;rounded=0;orthogonalLoop=1;jettySize=auto;html=1;exitX=0;exitY=0.5;exitDx=0;exitDy=0;exitPerimeter=0;strokeWidth=2;" edge="1" parent="1" source="LKbUBobH1jYEDCyhuCr8-85">
          <mxGeometry relative="1" as="geometry">
            <mxPoint x="600" y="280" as="targetPoint" />
            <Array as="points">
              <mxPoint x="210" y="510" />
              <mxPoint x="210" y="280" />
            </Array>
          </mxGeometry>
        </mxCell>
        <mxCell id="LKbUBobH1jYEDCyhuCr8-87" value="3" style="edgeLabel;html=1;align=center;verticalAlign=middle;resizable=0;points=[];fontSize=20;fontStyle=1" vertex="1" connectable="0" parent="LKbUBobH1jYEDCyhuCr8-86">
          <mxGeometry x="-0.8835" y="1" relative="1" as="geometry">
            <mxPoint as="offset" />
          </mxGeometry>
        </mxCell>
        <mxCell id="LKbUBobH1jYEDCyhuCr8-90" style="edgeStyle=orthogonalEdgeStyle;rounded=0;orthogonalLoop=1;jettySize=auto;html=1;exitX=0.5;exitY=1;exitDx=0;exitDy=0;exitPerimeter=0;strokeWidth=2;" edge="1" parent="1" source="LKbUBobH1jYEDCyhuCr8-85" target="LKbUBobH1jYEDCyhuCr8-88">
          <mxGeometry relative="1" as="geometry" />
        </mxCell>
        <mxCell id="LKbUBobH1jYEDCyhuCr8-94" value="1" style="edgeLabel;html=1;align=center;verticalAlign=middle;resizable=0;points=[];fontSize=20;fontStyle=1" vertex="1" connectable="0" parent="LKbUBobH1jYEDCyhuCr8-90">
          <mxGeometry x="-0.32" relative="1" as="geometry">
            <mxPoint as="offset" />
          </mxGeometry>
        </mxCell>
        <mxCell id="LKbUBobH1jYEDCyhuCr8-91" style="edgeStyle=orthogonalEdgeStyle;rounded=0;orthogonalLoop=1;jettySize=auto;html=1;exitX=1;exitY=0.5;exitDx=0;exitDy=0;exitPerimeter=0;strokeWidth=2;" edge="1" parent="1" source="LKbUBobH1jYEDCyhuCr8-85" target="LKbUBobH1jYEDCyhuCr8-89">
          <mxGeometry relative="1" as="geometry">
            <mxPoint x="349" y="710" as="targetPoint" />
            <Array as="points">
              <mxPoint x="319" y="510" />
              <mxPoint x="319" y="705" />
            </Array>
          </mxGeometry>
        </mxCell>
        <mxCell id="LKbUBobH1jYEDCyhuCr8-95" value="2" style="edgeLabel;html=1;align=center;verticalAlign=middle;resizable=0;points=[];fontSize=20;fontStyle=1" vertex="1" connectable="0" parent="LKbUBobH1jYEDCyhuCr8-91">
          <mxGeometry x="-0.5781" relative="1" as="geometry">
            <mxPoint as="offset" />
          </mxGeometry>
        </mxCell>
        <mxCell id="LKbUBobH1jYEDCyhuCr8-85" value="数据录入" style="strokeWidth=2;html=1;shape=mxgraph.flowchart.decision;whiteSpace=wrap;" vertex="1" parent="1">
          <mxGeometry x="199" y="480" width="100" height="60" as="geometry" />
        </mxCell>
        <mxCell id="LKbUBobH1jYEDCyhuCr8-93" style="edgeStyle=orthogonalEdgeStyle;rounded=0;orthogonalLoop=1;jettySize=auto;html=1;exitX=0;exitY=0.5;exitDx=0;exitDy=0;strokeWidth=2;" edge="1" parent="1" source="LKbUBobH1jYEDCyhuCr8-88">
          <mxGeometry relative="1" as="geometry">
            <mxPoint x="600" y="280" as="targetPoint" />
            <Array as="points">
              <mxPoint x="159" y="615" />
              <mxPoint x="159" y="280" />
            </Array>
          </mxGeometry>
        </mxCell>
        <mxCell id="LKbUBobH1jYEDCyhuCr8-88" value="手动录入" style="shape=parallelogram;html=1;strokeWidth=2;perimeter=parallelogramPerimeter;whiteSpace=wrap;rounded=1;arcSize=12;size=0.23;" vertex="1" parent="1">
          <mxGeometry x="199" y="590" width="100" height="50" as="geometry" />
        </mxCell>
        <mxCell id="LKbUBobH1jYEDCyhuCr8-92" style="edgeStyle=orthogonalEdgeStyle;rounded=0;orthogonalLoop=1;jettySize=auto;html=1;exitX=0;exitY=0.5;exitDx=0;exitDy=0;strokeWidth=2;" edge="1" parent="1" source="LKbUBobH1jYEDCyhuCr8-89">
          <mxGeometry relative="1" as="geometry">
            <mxPoint x="600" y="280" as="targetPoint" />
            <Array as="points">
              <mxPoint x="139" y="705" />
              <mxPoint x="139" y="280" />
            </Array>
          </mxGeometry>
        </mxCell>
        <mxCell id="LKbUBobH1jYEDCyhuCr8-89" value="文档录入" style="shape=parallelogram;html=1;strokeWidth=2;perimeter=parallelogramPerimeter;whiteSpace=wrap;rounded=1;arcSize=12;size=0.23;" vertex="1" parent="1">
          <mxGeometry x="199" y="680" width="100" height="50" as="geometry" />
        </mxCell>
        <mxCell id="LKbUBobH1jYEDCyhuCr8-102" value="" style="edgeStyle=orthogonalEdgeStyle;rounded=0;orthogonalLoop=1;jettySize=auto;html=1;strokeWidth=2;" edge="1" parent="1" source="LKbUBobH1jYEDCyhuCr8-99" target="LKbUBobH1jYEDCyhuCr8-101">
          <mxGeometry relative="1" as="geometry" />
        </mxCell>
        <mxCell id="LKbUBobH1jYEDCyhuCr8-99" value="按职工号排序" style="shape=parallelogram;perimeter=parallelogramPerimeter;whiteSpace=wrap;html=1;fixedSize=1;strokeWidth=2;pointerEvents=1;" vertex="1" parent="1">
          <mxGeometry x="359" y="570" width="120" height="40" as="geometry" />
        </mxCell>
        <mxCell id="LKbUBobH1jYEDCyhuCr8-104" value="" style="edgeStyle=orthogonalEdgeStyle;rounded=0;orthogonalLoop=1;jettySize=auto;html=1;strokeWidth=2;" edge="1" parent="1" source="LKbUBobH1jYEDCyhuCr8-101" target="LKbUBobH1jYEDCyhuCr8-103">
          <mxGeometry relative="1" as="geometry" />
        </mxCell>
        <mxCell id="LKbUBobH1jYEDCyhuCr8-101" value="部门与销售额统计" style="shape=parallelogram;perimeter=parallelogramPerimeter;whiteSpace=wrap;html=1;fixedSize=1;strokeWidth=2;pointerEvents=1;" vertex="1" parent="1">
          <mxGeometry x="359" y="630" width="120" height="40" as="geometry" />
        </mxCell>
        <mxCell id="LKbUBobH1jYEDCyhuCr8-103" value="工资排名" style="shape=parallelogram;perimeter=parallelogramPerimeter;whiteSpace=wrap;html=1;fixedSize=1;strokeWidth=2;pointerEvents=1;" vertex="1" parent="1">
          <mxGeometry x="359" y="690" width="120" height="40" as="geometry" />
        </mxCell>
        <mxCell id="LKbUBobH1jYEDCyhuCr8-109" value="" style="edgeStyle=orthogonalEdgeStyle;rounded=0;orthogonalLoop=1;jettySize=auto;html=1;strokeWidth=2;" edge="1" parent="1" source="LKbUBobH1jYEDCyhuCr8-106" target="LKbUBobH1jYEDCyhuCr8-108">
          <mxGeometry relative="1" as="geometry" />
        </mxCell>
        <mxCell id="LKbUBobH1jYEDCyhuCr8-106" value="数据输出" style="whiteSpace=wrap;html=1;strokeWidth=2;pointerEvents=1;" vertex="1" parent="1">
          <mxGeometry x="540" y="570" width="120" height="40" as="geometry" />
        </mxCell>
        <mxCell id="LKbUBobH1jYEDCyhuCr8-113" value="" style="edgeStyle=orthogonalEdgeStyle;rounded=0;orthogonalLoop=1;jettySize=auto;html=1;strokeWidth=2;" edge="1" parent="1" source="LKbUBobH1jYEDCyhuCr8-108" target="LKbUBobH1jYEDCyhuCr8-112">
          <mxGeometry relative="1" as="geometry">
            <Array as="points">
              <mxPoint x="700" y="670" />
            </Array>
          </mxGeometry>
        </mxCell>
        <mxCell id="LKbUBobH1jYEDCyhuCr8-116" value="enter" style="edgeLabel;html=1;align=center;verticalAlign=middle;resizable=0;points=[];fontSize=20;fontStyle=1" vertex="1" connectable="0" parent="LKbUBobH1jYEDCyhuCr8-113">
          <mxGeometry x="-0.7415" y="2" relative="1" as="geometry">
            <mxPoint x="21" y="42" as="offset" />
          </mxGeometry>
        </mxCell>
        <mxCell id="LKbUBobH1jYEDCyhuCr8-114" style="edgeStyle=orthogonalEdgeStyle;rounded=0;orthogonalLoop=1;jettySize=auto;html=1;exitX=0.5;exitY=1;exitDx=0;exitDy=0;strokeWidth=2;" edge="1" parent="1" source="LKbUBobH1jYEDCyhuCr8-108">
          <mxGeometry relative="1" as="geometry">
            <mxPoint x="600" y="280" as="targetPoint" />
            <mxPoint x="500" y="700" as="sourcePoint" />
            <Array as="points">
              <mxPoint x="600" y="800" />
              <mxPoint x="90" y="800" />
              <mxPoint x="90" y="280" />
            </Array>
          </mxGeometry>
        </mxCell>
        <mxCell id="LKbUBobH1jYEDCyhuCr8-126" value="其他任意键" style="edgeLabel;html=1;align=center;verticalAlign=middle;resizable=0;points=[];fontSize=15;fontStyle=1" vertex="1" connectable="0" parent="LKbUBobH1jYEDCyhuCr8-114">
          <mxGeometry x="-0.9557" y="-3" relative="1" as="geometry">
            <mxPoint as="offset" />
          </mxGeometry>
        </mxCell>
        <mxCell id="LKbUBobH1jYEDCyhuCr8-108" value="返回或修改" style="rhombus;whiteSpace=wrap;html=1;strokeWidth=2;pointerEvents=1;" vertex="1" parent="1">
          <mxGeometry x="540" y="640" width="120" height="60" as="geometry" />
        </mxCell>
        <mxCell id="LKbUBobH1jYEDCyhuCr8-115" style="edgeStyle=orthogonalEdgeStyle;rounded=0;orthogonalLoop=1;jettySize=auto;html=1;exitX=0;exitY=0.5;exitDx=0;exitDy=0;strokeWidth=2;" edge="1" parent="1" source="LKbUBobH1jYEDCyhuCr8-112">
          <mxGeometry relative="1" as="geometry">
            <mxPoint x="600" y="802" as="targetPoint" />
          </mxGeometry>
        </mxCell>
        <mxCell id="LKbUBobH1jYEDCyhuCr8-112" value="数据修改" style="shape=parallelogram;perimeter=parallelogramPerimeter;whiteSpace=wrap;html=1;fixedSize=1;strokeWidth=2;pointerEvents=1;" vertex="1" parent="1">
          <mxGeometry x="630" y="777" width="120" height="50" as="geometry" />
        </mxCell>
        <mxCell id="LKbUBobH1jYEDCyhuCr8-120" value="" style="edgeStyle=orthogonalEdgeStyle;rounded=0;orthogonalLoop=1;jettySize=auto;html=1;strokeWidth=2;" edge="1" parent="1" source="LKbUBobH1jYEDCyhuCr8-117" target="LKbUBobH1jYEDCyhuCr8-119">
          <mxGeometry relative="1" as="geometry" />
        </mxCell>
        <mxCell id="LKbUBobH1jYEDCyhuCr8-117" value="备份菜单" style="whiteSpace=wrap;html=1;strokeWidth=2;gradientColor=none;gradientDirection=north;fontStyle=0;" vertex="1" parent="1">
          <mxGeometry x="810" y="569.89" width="120" height="50" as="geometry" />
        </mxCell>
        <mxCell id="LKbUBobH1jYEDCyhuCr8-122" value="" style="edgeStyle=orthogonalEdgeStyle;rounded=0;orthogonalLoop=1;jettySize=auto;html=1;strokeWidth=2;" edge="1" parent="1" source="LKbUBobH1jYEDCyhuCr8-119" target="LKbUBobH1jYEDCyhuCr8-121">
          <mxGeometry relative="1" as="geometry" />
        </mxCell>
        <mxCell id="LKbUBobH1jYEDCyhuCr8-125" value="1" style="edgeLabel;html=1;align=center;verticalAlign=middle;resizable=0;points=[];fontSize=20;fontStyle=1" vertex="1" connectable="0" parent="LKbUBobH1jYEDCyhuCr8-122">
          <mxGeometry x="-0.4333" relative="1" as="geometry">
            <mxPoint as="offset" />
          </mxGeometry>
        </mxCell>
        <mxCell id="LKbUBobH1jYEDCyhuCr8-123" style="edgeStyle=orthogonalEdgeStyle;rounded=0;orthogonalLoop=1;jettySize=auto;html=1;exitX=1;exitY=0.5;exitDx=0;exitDy=0;strokeWidth=2;" edge="1" parent="1" source="LKbUBobH1jYEDCyhuCr8-119">
          <mxGeometry relative="1" as="geometry">
            <mxPoint x="600" y="280" as="targetPoint" />
            <Array as="points">
              <mxPoint x="1030" y="672" />
              <mxPoint x="1030" y="860" />
              <mxPoint x="60" y="860" />
              <mxPoint x="60" y="280" />
            </Array>
          </mxGeometry>
        </mxCell>
        <mxCell id="LKbUBobH1jYEDCyhuCr8-127" value="其他任意键" style="edgeLabel;html=1;align=center;verticalAlign=middle;resizable=0;points=[];fontSize=15;fontStyle=1" vertex="1" connectable="0" parent="LKbUBobH1jYEDCyhuCr8-123">
          <mxGeometry x="-0.9423" y="3" relative="1" as="geometry">
            <mxPoint x="31" y="3" as="offset" />
          </mxGeometry>
        </mxCell>
        <mxCell id="LKbUBobH1jYEDCyhuCr8-119" value="备份或返回" style="rhombus;whiteSpace=wrap;html=1;strokeWidth=2;gradientColor=none;gradientDirection=north;fontStyle=0;" vertex="1" parent="1">
          <mxGeometry x="810" y="639.89" width="120" height="65" as="geometry" />
        </mxCell>
        <mxCell id="LKbUBobH1jYEDCyhuCr8-128" style="edgeStyle=orthogonalEdgeStyle;rounded=0;orthogonalLoop=1;jettySize=auto;html=1;exitX=1;exitY=0.5;exitDx=0;exitDy=0;strokeWidth=2;" edge="1" parent="1" source="LKbUBobH1jYEDCyhuCr8-121">
          <mxGeometry relative="1" as="geometry">
            <mxPoint x="950" y="859.89" as="targetPoint" />
          </mxGeometry>
        </mxCell>
        <mxCell id="LKbUBobH1jYEDCyhuCr8-121" value="输出txt文件" style="shape=document;whiteSpace=wrap;html=1;boundedLbl=1;strokeWidth=2;gradientColor=none;gradientDirection=north;fontStyle=0;" vertex="1" parent="1">
          <mxGeometry x="810" y="764.89" width="120" height="62.5" as="geometry" />
        </mxCell>
        <mxCell id="LKbUBobH1jYEDCyhuCr8-129" style="edgeStyle=orthogonalEdgeStyle;rounded=0;orthogonalLoop=1;jettySize=auto;html=1;exitX=0.5;exitY=1;exitDx=0;exitDy=0;entryX=0.5;entryY=0;entryDx=0;entryDy=0;entryPerimeter=0;strokeWidth=2;" edge="1" parent="1" source="LKbUBobH1jYEDCyhuCr8-82" target="40">
          <mxGeometry relative="1" as="geometry">
            <Array as="points">
              <mxPoint x="1120" y="900" />
              <mxPoint x="600" y="900" />
            </Array>
          </mxGeometry>
        </mxCell>
      </root>
    </mxGraphModel>
  </diagram>
</mxfile>
